<svg width="150px" height="33px" viewBox="0 0 150 33" version="1.1" xmlns="http://www.w3.org/2000/svg" xmlns:xlink="http://www.w3.org/1999/xlink">
  <g id="svg-logo">
    <defs>
      <polygon id="path-1" points="0.705718085 21.8571429 20.5408245 21.8571429 20.5408245 0.415447619 0.705718085 0.415447619 0.705718085 21.8571429"></polygon>
      <polygon id="path-3" points="19.8351064 21.4807952 19.8351064 0.415366667 0.184308511 0.415366667 0.184308511 21.4807952 19.8351064 21.4807952"></polygon>
    </defs>
    <path
      d="M53.4529787,32.4811714 C51.4495213,32.4811714 50.5598936,31.8036 50.1146809,30.900981 C47.5567021,25.5597429 45.3689362,20.7074571 43.0710638,15.7410286 C43.1085638,21.1203143 43.2569681,26.5376476 43.3303723,31.9169333 C43.3303723,32.2553143 43.182766,32.4811714 42.7367553,32.4811714 L40.6989894,32.4811714 C37.9168085,32.4811714 36.8428723,31.3154571 36.8428723,29.1337905 C36.8428723,27.891981 37.2130851,23.1141714 37.5832979,18.2991238 C38.176117,10.7001238 38.3253191,8.74431429 38.3995213,6.33679048 C38.3995213,5.92231429 38.5471277,5.77174286 38.9915426,5.77174286 L41.9580319,5.77174286 C45.2580319,5.77174286 45.8891489,7.42802857 46.5928723,9.23326667 C50.2271809,18.524981 50.8559043,19.803219 52.3766489,23.301981 C52.3766489,17.3584571 52.2657447,10.5495524 52.2657447,6.11012381 C52.2657447,5.92231429 52.4508511,5.77174286 52.8960638,5.77174286 L54.9354255,5.77174286 C58.1612234,5.77174286 58.6798404,7.12688571 58.6798404,9.42188571 C58.6798404,13.1076476 57.3090957,30.7884571 57.1598936,31.8788857 C57.1598936,32.2933619 56.826383,32.4811714 56.4920745,32.4811714 L53.4529787,32.4811714 Z"
      id="Fill-1"
      fill="#4a4a4a"></path>
    <path
      d="M67.2443617,26.3121143 C67.2443617,27.4778286 68.1339894,27.8534476 68.9502128,27.8534476 C70.5443617,27.8534476 72.1776064,26.4246381 72.3994149,23.5654 C69.8039362,23.5654 67.2443617,24.3182571 67.2443617,26.3121143 M72.7321277,20.4811143 C72.7696277,19.9541143 72.8063298,19.6157333 72.8063298,19.0895429 C72.8063298,17.4721143 72.3619149,16.4561619 70.5076596,16.4561619 C68.4315957,16.4561619 68.0972872,17.6971619 67.6536702,19.5032095 C67.5419681,19.9541143 67.2443617,20.0294 66.5031383,20.0294 C63.9818617,20.0294 62.7220213,19.126781 62.7220213,17.1329238 C62.7220213,13.9733524 65.5393085,11.4152571 71.2121809,11.4152571 C76.6999468,11.4152571 79.0353191,13.822781 79.0353191,18.0355429 C79.0353191,19.164019 78.4042021,24.3554952 78.4042021,25.484781 C78.4042021,28.0048286 80.5919681,27.1774952 80.5919681,27.966781 C80.5919681,30.1864952 79.554734,32.8571143 76.1438298,32.8571143 C73.7717553,32.8571143 72.6579255,31.6161143 72.2877128,29.5842095 C71.1012766,31.3149714 69.3220213,32.8571143 66.2438298,32.8571143 C63.2773404,32.8571143 60.867766,31.5035905 60.867766,27.8534476 C60.867766,23.3775905 64.9831915,20.6697333 72.7321277,20.4811143"
      id="Fill-3"
      fill="#4a4a4a"></path>
    <g id="Group-7" transform="translate(82.180851, 6.143152)" fill="#4a4a4a">
      <path
        d="M8.64518617,10.7262714 C8.31087766,14.4881286 7.94066489,18.4758429 7.94066489,19.9054619 C7.94066489,21.1845095 8.23667553,21.5228905 8.90369681,21.5228905 C10.0159309,21.5228905 10.4236436,20.5449857 11.0914628,20.5449857 C11.4249734,20.5449857 11.7951862,20.808081 11.7951862,22.2377 C11.7951862,24.9844143 10.4611436,26.7143667 6.86433511,26.7143667 C3.30582447,26.7143667 1.6374734,25.0216524 1.6374734,21.5981762 C1.6374734,20.0552238 1.97098404,17.836319 2.48960106,10.7262714 L0.523643617,10.7262714 C0.153430851,10.7262714 0.117526596,10.5384619 0.117526596,10.200081 L0.227632979,8.2807 C0.301835106,7.0024619 0.599441489,5.64812857 2.89731383,5.64812857 C3.60183511,3.84289048 4.71486702,0.118271429 5.38109043,0.118271429 L6.45742021,0.118271429 C8.53268617,0.118271429 9.19970745,1.62236667 9.19970745,3.42841429 C9.19970745,3.91736667 9.16300532,4.67022381 9.08960106,5.64812857 L12.9824202,5.64812857 C13.3518351,5.64812857 13.5760372,5.7987 13.5760372,6.17431905 L13.427633,8.20622381 C13.3159309,9.71112857 12.834016,10.7262714 10.6095479,10.7262714 L8.64518617,10.7262714 Z"
        id="Fill-5"></path>
    </g>
    <path
      d="M102.800346,4.11659048 C104.91391,4.11659048 105.841037,5.05806667 105.841037,6.52411429 C105.841037,8.3674 104.431197,9.75978095 101.836516,9.75978095 C99.8721543,9.75978095 98.8325266,8.96968571 98.8325266,7.35225714 C98.8325266,5.3584 100.389973,4.11659048 102.800346,4.11659048 L102.800346,4.11659048 Z M101.466303,32.4814952 C98.4264096,32.4814952 97.6843883,31.2024476 97.6843883,28.9074476 C97.6843883,27.3653048 98.0171011,23.9418286 98.7958245,12.8821143 C98.8325266,12.2798286 98.8700266,12.0167333 98.9825266,11.9042095 C99.0934309,11.7908762 99.2410372,11.7908762 99.5745479,11.7908762 L101.02109,11.7908762 C104.060984,11.7908762 104.803005,13.0707333 104.803005,15.2143524 C104.803005,16.6812095 104.470293,20.932019 103.615771,31.7286381 C103.579069,32.3309238 103.430665,32.4814952 102.800346,32.4814952 L101.466303,32.4814952 Z"
      id="Fill-8"
      fill="#4a4a4a"></path>
    <g id="Group-12" transform="translate(106.914894, 11.000295)">
      <mask id="mask-2" fill="white">
        <use xlink:href="#path-1"></use>
      </mask>
      <g id="Clip-11"></g>
      <path
        d="M7.0081117,12.0385905 C7.0081117,15.3495429 8.08444149,16.8536381 10.0121011,16.8536381 C13.4980053,16.8536381 14.2384309,11.7754952 14.2384309,9.44325714 C14.2384309,6.96044762 13.3855053,5.41830476 11.1985372,5.41830476 C7.45412234,5.41830476 7.0081117,9.8941619 7.0081117,12.0385905 M0.705718085,12.4530667 C0.705718085,6.3954 3.33789894,0.415447619 11.8280585,0.415447619 C18.0570479,0.415447619 20.5408245,3.65030476 20.5408245,9.2174 C20.5408245,13.9571619 18.7615691,21.8573048 9.45518617,21.8573048 C2.67087766,21.8573048 0.705718085,17.681781 0.705718085,12.4530667"
        id="Fill-10"
        fill="#4a4a4a"
        mask="url(#mask-2)"></path>
    </g>
    <g id="Group-15" transform="translate(130.053191, 11.000295)">
      <mask id="mask-4" fill="white">
        <use xlink:href="#path-3"></use>
      </mask>
      <g id="Clip-14"></g>
      <path
        d="M13.606117,7.97550952 C13.606117,6.65922381 13.1242021,5.4554619 11.3441489,5.4554619 C7.93404255,5.4554619 6.97021277,8.27665238 6.11569149,20.7279381 C6.07819149,21.3310333 5.93058511,21.4807952 5.30026596,21.4807952 L3.9662234,21.4807952 C0.925531915,21.4807952 0.184308511,20.2025571 0.184308511,17.9075571 C0.184308511,16.3646048 0.517819149,12.9419381 1.29574468,1.88141429 C1.33244681,1.2799381 1.36994681,1.01684286 1.48244681,0.904319048 C1.59335106,0.790985714 1.74175532,0.790985714 2.07446809,0.790985714 L3.52021277,0.790985714 C6.4875,0.790985714 7.2662234,2.29508095 7.37632979,3.95055714 C8.93457447,1.2799381 10.7505319,0.415366667 13.7170213,0.415366667 C17.8699468,0.415366667 19.8359043,2.10727143 19.8359043,7.2234619 C19.8359043,9.66903333 18.8329787,19.0360333 18.8329787,20.315081 C18.8329787,21.4055095 18.6845745,21.4807952 17.8324468,21.4807952 L16.6468085,21.4807952 C13.5319149,21.4807952 12.8273936,20.2770333 12.8273936,18.1706524 C12.8273936,15.9881762 13.606117,10.4591286 13.606117,7.97550952"
        id="Fill-13"
        fill="#4a4a4a"
        mask="url(#mask-4)"></path>
    </g>
    <path
      d="M32.387633,14.7671714 C32.387633,6.61121905 25.137367,-0.000161904762 16.194016,-0.000161904762 C7.25066489,-0.000161904762 0.00039893617,6.61121905 0.00039893617,14.7671714 C0.00039893617,22.9231238 7.25066489,29.5345048 16.194016,29.5345048 C18.9019947,29.5345048 21.4527926,28.9249333 23.6964096,27.8539333 L28.7852394,31.7258857 L27.5732713,25.2715524 C30.5445479,22.5944571 32.387633,18.8779333 32.387633,14.7671714 L32.387633,14.7671714 Z"
      id="Fill-16"
      fill="#F5A623"></path>
    <polygon id="Star-Copy" fill="#FFFFFF" points="15.7919902 19.289475 10.9762754 21.8212461 11.8959951 16.4588689 8 12.6612123 13.3841328 11.878852 15.7919902 7 18.1998476 11.878852 23.5839804 12.6612123 19.6879853 16.4588689 20.607705 21.8212461"></polygon>
  </g>
</svg>